<mxfile host="app.diagrams.net" agent="Mozilla/5.0 (X11; Linux x86_64; rv:109.0) Gecko/20100101 Firefox/115.0" version="24.7.15">
  <diagram name="Page-1" id="YTA9PmVpi16rOcPj4em4">
    <mxGraphModel dx="1342" dy="1797" grid="1" gridSize="10" guides="1" tooltips="1" connect="1" arrows="1" fold="1" page="1" pageScale="1" pageWidth="850" pageHeight="1100" math="0" shadow="0">
      <root>
        <mxCell id="0" />
        <mxCell id="1" parent="0" />
        <mxCell id="3pTon5SdB5cwGMIeFZMg-8" style="rounded=0;orthogonalLoop=1;jettySize=auto;html=1;dashed=1;startArrow=open;startFill=0;endArrow=none;endFill=0;" edge="1" parent="1" source="3pTon5SdB5cwGMIeFZMg-1" target="3pTon5SdB5cwGMIeFZMg-2">
          <mxGeometry relative="1" as="geometry" />
        </mxCell>
        <mxCell id="3pTon5SdB5cwGMIeFZMg-10" value="&amp;lt;&amp;lt;extends&amp;gt;&amp;gt;" style="edgeLabel;html=1;align=center;verticalAlign=middle;resizable=0;points=[];" vertex="1" connectable="0" parent="3pTon5SdB5cwGMIeFZMg-8">
          <mxGeometry x="-0.0429" y="-1" relative="1" as="geometry">
            <mxPoint as="offset" />
          </mxGeometry>
        </mxCell>
        <mxCell id="3pTon5SdB5cwGMIeFZMg-9" style="rounded=0;orthogonalLoop=1;jettySize=auto;html=1;dashed=1;startArrow=open;startFill=0;endArrow=none;endFill=0;" edge="1" parent="1" source="3pTon5SdB5cwGMIeFZMg-1" target="3pTon5SdB5cwGMIeFZMg-3">
          <mxGeometry relative="1" as="geometry" />
        </mxCell>
        <mxCell id="3pTon5SdB5cwGMIeFZMg-11" value="&amp;lt;&amp;lt;extends&amp;gt;&amp;gt;" style="edgeLabel;html=1;align=center;verticalAlign=middle;resizable=0;points=[];" vertex="1" connectable="0" parent="3pTon5SdB5cwGMIeFZMg-9">
          <mxGeometry x="0.0817" y="-3" relative="1" as="geometry">
            <mxPoint as="offset" />
          </mxGeometry>
        </mxCell>
        <mxCell id="3pTon5SdB5cwGMIeFZMg-14" style="rounded=0;orthogonalLoop=1;jettySize=auto;html=1;dashed=1;" edge="1" parent="1" source="3pTon5SdB5cwGMIeFZMg-1" target="3pTon5SdB5cwGMIeFZMg-13">
          <mxGeometry relative="1" as="geometry" />
        </mxCell>
        <mxCell id="3pTon5SdB5cwGMIeFZMg-15" value="&amp;lt;&amp;lt;include&amp;gt;&amp;gt;" style="edgeLabel;html=1;align=center;verticalAlign=middle;resizable=0;points=[];" vertex="1" connectable="0" parent="3pTon5SdB5cwGMIeFZMg-14">
          <mxGeometry x="0.3545" relative="1" as="geometry">
            <mxPoint as="offset" />
          </mxGeometry>
        </mxCell>
        <mxCell id="3pTon5SdB5cwGMIeFZMg-1" value="GÃ©rer un offre" style="ellipse;whiteSpace=wrap;html=1;fillColor=#dae8fc;strokeColor=#6c8ebf;" vertex="1" parent="1">
          <mxGeometry x="230" y="-940" width="140" height="70" as="geometry" />
        </mxCell>
        <mxCell id="3pTon5SdB5cwGMIeFZMg-17" style="rounded=0;orthogonalLoop=1;jettySize=auto;html=1;endArrow=none;endFill=0;" edge="1" parent="1" source="3pTon5SdB5cwGMIeFZMg-2" target="3pTon5SdB5cwGMIeFZMg-16">
          <mxGeometry relative="1" as="geometry" />
        </mxCell>
        <mxCell id="3pTon5SdB5cwGMIeFZMg-2" value="Ajouter un offre" style="ellipse;whiteSpace=wrap;html=1;fillColor=#ffe6cc;strokeColor=#d79b00;" vertex="1" parent="1">
          <mxGeometry x="505" y="-830" width="140" height="70" as="geometry" />
        </mxCell>
        <mxCell id="3pTon5SdB5cwGMIeFZMg-3" value="Supprimer&amp;nbsp; un offre" style="ellipse;whiteSpace=wrap;html=1;fillColor=#ffe6cc;strokeColor=#d79b00;" vertex="1" parent="1">
          <mxGeometry x="350" y="-790" width="140" height="70" as="geometry" />
        </mxCell>
        <mxCell id="3pTon5SdB5cwGMIeFZMg-4" value="Admin" style="shape=umlActor;verticalLabelPosition=bottom;verticalAlign=top;html=1;outlineConnect=0;fillColor=#e1d5e7;strokeColor=#9673a6;" vertex="1" parent="1">
          <mxGeometry x="50" y="-950" width="60" height="120" as="geometry" />
        </mxCell>
        <mxCell id="3pTon5SdB5cwGMIeFZMg-5" value="" style="endArrow=none;html=1;rounded=0;" edge="1" parent="1" target="3pTon5SdB5cwGMIeFZMg-1">
          <mxGeometry relative="1" as="geometry">
            <mxPoint x="120" y="-900" as="sourcePoint" />
            <mxPoint x="210.94000000000005" y="58.5600000000004" as="targetPoint" />
          </mxGeometry>
        </mxCell>
        <mxCell id="3pTon5SdB5cwGMIeFZMg-13" value="S&#39;authentifier" style="ellipse;whiteSpace=wrap;html=1;fillColor=#d5e8d4;strokeColor=#82b366;" vertex="1" parent="1">
          <mxGeometry x="620" y="-940" width="140" height="70" as="geometry" />
        </mxCell>
        <mxCell id="3pTon5SdB5cwGMIeFZMg-16" value="Envoyer notification aux clients" style="ellipse;whiteSpace=wrap;html=1;fillColor=#ffe6cc;strokeColor=#d79b00;" vertex="1" parent="1">
          <mxGeometry x="610" y="-730" width="140" height="70" as="geometry" />
        </mxCell>
      </root>
    </mxGraphModel>
  </diagram>
</mxfile>
